<svg version="1.1" xmlns="http://www.w3.org/2000/svg" xmlns:xlink="http://www.w3.org/1999/xlink" width="172.66687" height="118.09111" viewBox="0,0,172.66687,118.09111"><g transform="translate(-261.59191,-121.02087)"><g data-paper-data="{&quot;isPaintingLayer&quot;:true}" fill-rule="nonzero" stroke-linejoin="miter" stroke-miterlimit="10" stroke-dasharray="" stroke-dashoffset="0" style="mix-blend-mode: normal"><path d="M427.27639,188.17608c-15.66685,35.52329 -51.87551,45.80226 -78.95547,47.18591c-27.54737,1.40753 -69.26009,-20.11324 -80.56372,-40.40634c-11.30363,-20.2931 20.7375,-66.99806 20.7375,-66.99806l23.92787,39.87979c0,0 13.94462,-7.67621 27.11827,-7.57716c13.17365,0.09905 25.92187,7.97596 25.92187,7.97596l31.10624,-42.27259c0,0 46.37429,26.68919 30.70744,62.21248z" data-paper-data="{&quot;index&quot;:null}" fill="#dcddde" stroke="#dcddde" stroke-width="7.5" stroke-linecap="round"/><path d="M305.31536,189.37246c0,-5.24671 4.25329,-9.5 9.5,-9.5c5.24671,0 9.5,4.25329 9.5,9.5c0,5.24671 -4.25329,9.5 -9.5,9.5c-5.24671,0 -9.5,-4.25329 -9.5,-9.5z" data-paper-data="{&quot;index&quot;:null}" fill="#36383f" stroke="none" stroke-width="0.5" stroke-linecap="butt"/><path d="M347.58794,188.97367c0,-5.24671 4.25329,-9.5 9.5,-9.5c5.24671,0 9.5,4.25329 9.5,9.5c0,5.24671 -4.25329,9.5 -9.5,9.5c-5.24671,0 -9.5,-4.25329 -9.5,-9.5z" data-paper-data="{&quot;index&quot;:null}" fill="#36383f" stroke="none" stroke-width="0.5" stroke-linecap="butt"/><path d="M267.7572,194.95565c-11.30363,-20.2931 20.7375,-66.99806 20.7375,-66.99806l23.92787,39.87979c0,0 -33.36174,47.41137 -44.66537,27.11827z" data-paper-data="{&quot;index&quot;:null}" fill="#c3c3c3" stroke="#dcddde" stroke-width="0" stroke-linecap="round"/><path d="M427.27639,188.17608c-15.66685,35.52329 -61.81368,-19.9399 -61.81368,-19.9399l31.10624,-42.27259c0,0 46.37429,26.68919 30.70744,62.21248z" data-paper-data="{&quot;index&quot;:null}" fill="#c3c3c3" stroke="#dcddde" stroke-width="0" stroke-linecap="round"/><path d="M317.32423,218.56948c0,0 6.97138,10.98124 12.52829,7.98905c5.55692,-2.99219 6.5365,-15.07026 6.5365,-15.07026c0,0 4.13778,12.07047 10.7126,15.25183c6.57482,3.18136 13.43614,-7.80749 13.43614,-7.80749" fill="none" stroke="#36383f" stroke-width="5.5" stroke-linecap="round"/><path d="M350.53099,204.86099c0,2.85792 -6.01556,5.17473 -13.43614,5.17473c-7.42057,0 -13.43614,-2.3168 -13.43614,-5.17473c0,-2.85792 6.01556,-5.17473 13.43614,-5.17473c7.42057,0 13.43614,2.3168 13.43614,5.17473z" fill="#ff7bb6" stroke="#36383f" stroke-width="5.5" stroke-linecap="butt"/></g></g></svg>