<svg version="1.1" xmlns="http://www.w3.org/2000/svg" xmlns:xlink="http://www.w3.org/1999/xlink" width="117.9" height="111.62811" viewBox="0,0,117.9,111.62811"><g transform="translate(-261.05,-124.18595)"><g data-paper-data="{&quot;isPaintingLayer&quot;:true}" fill-rule="nonzero" stroke-linejoin="miter" stroke-miterlimit="10" stroke-dasharray="" stroke-dashoffset="0" style="mix-blend-mode: normal"><path d="M378.95,197.0486c0,29.30813 -26.41904,38.76545 -58.95,38.76545c-32.53137,0 -58.95,-9.35375 -58.95,-38.76545c0,-13.8229 3.9369,-29.51626 12.32869,-42.40355l-6.94137,-23.28022c-1.34683,-4.46895 3.10809,-8.5222 7.2522,-6.75539l22.89619,9.56152c6.73417,-3.01396 14.50435,-4.78074 23.41428,-4.78074c8.70239,0 16.47263,1.76679 23.20714,4.88472l23.10299,-9.66549c4.14405,-1.66286 8.59882,2.39038 7.25237,6.75545l-7.04523,23.59197c8.39225,12.6794 12.43272,28.37299 12.43272,42.09174z" fill="#ff7319" stroke="none" stroke-width="1" stroke-linecap="butt"/><path d="M366.10299,215.5478c0,15.38166 -20.72025,20.26626 -46.20656,20.26626c-25.48642,0 -46.2069,-4.88459 -46.2069,-20.26626c0,-15.38166 13.77911,-35.33605 46.2069,-35.33605c31.70238,-0.10392 46.20656,19.95439 46.20656,35.33605z" fill="#ffffff" stroke="none" stroke-width="1" stroke-linecap="butt"/><path d="M314.81977,187.17527c0,-2.07893 2.27923,-2.70267 5.18023,-2.70267c2.9006,0 5.17977,0.62374 5.17977,2.70267c0,2.07835 -1.55359,4.6763 -5.17977,4.6763c-3.62619,0 -5.18023,-2.59794 -5.18023,-4.6763z" fill="#945600" stroke="#000000" stroke-width="1.5" stroke-linecap="butt"/><path d="M311.09006,202.66051c4.86929,0 8.80636,-3.84542 8.80636,-8.73001c0,-0.20772 0,-0.20772 0,-0.20772c0,-0.31187 0,-0.51959 0,-0.51959c0,0 0,0.20772 0,0.51959c0,0 0,0 0,0.20772c0,4.78045 3.9369,8.73001 8.80596,8.73001" fill="none" stroke="#000000" stroke-width="2.5" stroke-linecap="round"/><path d="M304.7703,169.40304c0,-2.75514 2.22646,-4.98857 4.97292,-4.98857c2.74651,0 4.97292,2.23343 4.97292,4.98857c0,2.7552 -2.22641,4.98863 -4.97292,4.98863c-2.74645,0 -4.97292,-2.23348 -4.97292,-4.98863z" fill="#000000" stroke="none" stroke-width="1" stroke-linecap="butt"/><path d="M325.17977,169.40304c0,-2.75514 2.22681,-4.98857 4.9732,-4.98857c2.7464,0 4.97263,2.23343 4.97263,4.98857c0,2.7552 -2.22623,4.98863 -4.97263,4.98863c-2.7464,0 -4.9732,-2.23348 -4.9732,-4.98863z" fill="#000000" stroke="none" stroke-width="1" stroke-linecap="butt"/><path d="M283.94613,143.00495c-3.3153,3.01396 -6.11256,5.71611 -8.59899,9.87333l-6.21619,-21.61736c-0.4144,-2.59825 1.96845,-4.78076 4.55857,-4.05325l20.61691,8.62615c-4.66214,1.87075 -7.35583,4.36506 -10.3603,7.17119z" fill="#77500c" stroke="none" stroke-width="1" stroke-linecap="butt"/><path d="M346.10774,135.83382l20.61668,-8.62614c2.59046,-0.72749 4.9732,1.45501 4.55892,4.05324l-6.21607,21.61736c-2.48689,-4.15717 -5.28392,-6.85937 -8.59939,-9.87333c-3.00418,-2.80607 -5.69821,-5.30038 -10.36012,-7.17113z" fill="#77500c" stroke="none" stroke-width="1" stroke-linecap="butt"/><path d="M315.98638,172.76112c0.61676,0.37005 0.2467,0.98681 0.2467,0.98681l-0.34784,0.57816c-0.77666,1.16188 -1.83088,2.79937 -3.28926,3.1571c-2.93832,0.72075 -6.68216,-0.06568 -8.80261,-2.16869c0,0 -0.50859,-0.50859 0,-1.01718c0.50859,-0.50859 1.01718,0 1.01718,0c1.80835,1.82637 4.9548,2.29885 7.45493,1.78585c1.01078,-0.2074 1.90783,-1.7802 2.42285,-2.55501l0.31125,-0.52033c0,0 0.37005,-0.61676 0.98681,-0.2467z" fill="#cc5b14" stroke="none" stroke-width="0.5" stroke-linecap="butt"/><path d="M303.45715,177.54244c-0.50859,0.50859 -1.01718,0 -1.01718,0l-0.11007,-0.12983c-0.61532,-0.41187 -1.23839,-0.72284 -1.89996,-1.05362c0,0 -0.64332,-0.32166 -0.32166,-0.96498c0.32166,-0.64332 0.96498,-0.32166 0.96498,-0.32166c0.71451,0.35726 1.38811,0.70063 2.05458,1.14335l0.32932,0.30956c0,0 0.50859,0.50859 0,1.01717z" fill="#cc5b14" stroke="none" stroke-width="0.5" stroke-linecap="butt"/><path d="M319.45619,173.85609c0.43155,0.5754 -0.14385,1.00695 -0.14385,1.00695l-0.17936,-0.04826c-0.12829,0.4327 -0.19671,0.88899 -0.19202,1.34028c0,0 0,0.71925 -0.71925,0.71925c-0.71925,0 -0.71925,-0.71925 -0.71925,-0.71925c0.00468,-0.58432 0.09119,-1.17239 0.24737,-1.73547l0.69942,-0.70735c0,0 0.5754,-0.43155 1.00695,0.14385z" fill="#cc5b14" stroke="none" stroke-width="0.5" stroke-linecap="butt"/><path d="M325.74716,173.13862l0.31125,0.52033c0.51502,0.77481 1.41207,2.34761 2.42285,2.55501c2.50014,0.51301 5.64658,0.04053 7.45493,-1.78584c0,0 0.50859,-0.50859 1.01718,0c0.50859,0.50859 0,1.01718 0,1.01718c-2.12045,2.10301 -5.8643,2.88944 -8.80261,2.16869c-1.45839,-0.35773 -2.5126,-1.99522 -3.28926,-3.1571l-0.34784,-0.57816c0,0 -0.37005,-0.61676 0.2467,-0.98681c0.61676,-0.37005 0.98681,0.2467 0.98681,0.2467z" data-paper-data="{&quot;index&quot;:null}" fill="#cc5b14" stroke="none" stroke-width="0.5" stroke-linecap="butt"/><path d="M337.28958,176.65606l0.32931,-0.30956c0.66648,-0.44272 1.34007,-0.78609 2.05458,-1.14335c0,0 0.64332,-0.32166 0.96498,0.32166c0.32166,0.64332 -0.32166,0.96498 -0.32166,0.96498c-0.66156,0.33078 -1.28463,0.64175 -1.89996,1.05362l-0.11007,0.12983c0,0 -0.50859,0.50859 -1.01718,0c-0.50859,-0.50859 0,-1.01718 0,-1.01718z" data-paper-data="{&quot;index&quot;:null}" fill="#cc5b14" stroke="none" stroke-width="0.5" stroke-linecap="butt"/><path d="M322.29749,173.84304l0.69942,0.70735c0.15618,0.56308 0.24269,1.15116 0.24737,1.73547c0,0 0,0.71925 -0.71925,0.71925c-0.71925,0 -0.71925,-0.71925 -0.71925,-0.71925c0.00469,-0.45129 -0.06373,-0.90758 -0.19202,-1.34029l-0.17936,0.04826c0,0 -0.5754,-0.43155 -0.14385,-1.00695c0.43155,-0.5754 1.00695,-0.14385 1.00695,-0.14385z" data-paper-data="{&quot;index&quot;:null}" fill="#cc5b14" stroke="none" stroke-width="0.5" stroke-linecap="butt"/><path d="M331.90728,138.98691c0,0.71925 -0.71925,0.71925 -0.71925,0.71925c-2.74621,0 -6.26135,0 -9.00756,0c-5.53579,0 -11.13995,-0.13163 -16.49934,1.40035c0,0 -0.69158,0.19759 -0.88918,-0.49398c-0.19759,-0.69158 0.49398,-0.88918 0.49398,-0.88918c5.49201,-1.56842 11.22214,-1.4557 16.89453,-1.4557c2.74621,0 5.49241,0 8.23862,0h0.76894c0,0 0.71925,0 0.71925,0.71925z" fill="#cc5b14" stroke="none" stroke-width="0.5" stroke-linecap="butt"/><path d="M332.45652,143.82024c0,0.71925 -0.71925,0.71925 -0.71925,0.71925h-0.32954c-3.23365,0 -6.42293,0.54691 -9.66665,0.54924c-5.88475,-0.00552 -12.31555,-0.427 -18.07878,0.86165c0,0 -0.70213,0.15603 -0.85816,-0.5461c-0.15603,-0.70213 0.5461,-0.85816 0.5461,-0.85816c5.88582,-1.30051 12.38322,-0.89068 18.39084,-0.89591c3.24306,0.00247 6.43187,-0.54924 9.66665,-0.54924h0.32954c0,0 0.71925,0 0.71925,0.71925z" fill="#cc5b14" stroke="none" stroke-width="0.5" stroke-linecap="butt"/><path d="M335.83083,149.2028c0,0.71925 -0.71925,0.71925 -0.71925,0.71925c-4.20386,0 -9.17667,0 -13.38053,0c-2.61595,0 -5.30321,-0.17487 -7.91299,0.01792c-1.69766,0.12541 -3.32903,0.75048 -5.01907,0.85905c-2.72196,0.17486 -5.49033,-0.23721 -8.2004,0.1061c0,0 -0.71369,0.08922 -0.80291,-0.62448c-0.08922,-0.7137 0.62448,-0.80292 0.62448,-0.80292c2.73985,-0.33833 5.52651,0.05278 8.27685,-0.11359c1.68409,-0.10187 3.32045,-0.73259 5.01464,-0.85873c2.64509,-0.19693 5.36803,-0.02187 8.0194,-0.02187c4.20387,0 8.40773,0 12.61159,0h0.76894c0,0 0.71925,0 0.71925,0.71925z" fill="#cc5b14" stroke="none" stroke-width="0.5" stroke-linecap="butt"/><path d="M310.54378,207.21274c-0.50859,0.50859 -1.01717,0 -1.01717,0l-0.10985,-0.10984c-0.60977,-0.61089 -0.97941,-1.28039 -1.48636,-1.93338c-0.6925,-0.89199 -1.31242,-0.56346 -1.94382,-1.65886c0,0 -0.32166,-0.64332 0.32166,-0.96498c0.64332,-0.32166 0.96498,0.32166 0.96498,0.32166c0.23833,0.69957 1.20618,0.74681 1.79102,1.4169c0.49882,0.57154 0.80305,1.23595 1.3697,1.80147l0.10984,0.10985c0,0 0.50859,0.50859 0,1.01717z" fill="#cccccc" stroke="none" stroke-width="0.5" stroke-linecap="butt"/><path d="M330.20993,206.98546l0.10984,-0.10985c0.56664,-0.56552 0.87087,-1.22993 1.36969,-1.80147c0.58484,-0.67009 1.55269,-0.71733 1.79102,-1.4169c0,0 0.32166,-0.64332 0.96498,-0.32166c0.64332,0.32166 0.32166,0.96498 0.32166,0.96498c-0.6314,1.09539 -1.25132,0.76686 -1.94382,1.65886c-0.50695,0.65299 -0.87659,1.32248 -1.48636,1.93337l-0.10985,0.10985c0,0 -0.50859,0.50859 -1.01717,0c-0.50859,-0.50859 0,-1.01717 0,-1.01717z" data-paper-data="{&quot;index&quot;:null}" fill="#cccccc" stroke="none" stroke-width="0.5" stroke-linecap="butt"/><path d="M316.19468,192.82779c0.66781,0.26712 0.40069,0.93493 0.40069,0.93493l-0.24419,0.60378c-0.87483,1.74191 -2.09228,3.20144 -4.15846,3.25365c0,0 -0.71925,0 -0.71925,-0.71925c0,-0.71925 0.71925,-0.71925 0.71925,-0.71925c1.44251,0.05949 2.29258,-1.29414 2.87182,-2.45846l0.19521,-0.49471c0,0 0.26712,-0.66781 0.93493,-0.40069z" fill="#cccccc" stroke="none" stroke-width="0.5" stroke-linecap="butt"/><path d="M327.58665,196.36005c-0.11825,0.70947 -0.82771,0.59122 -0.82771,0.59122l-0.82417,-0.15822c-1.64357,-0.70509 -1.91325,-1.66718 -3.08132,-2.78887c0,0 -0.50859,-0.50859 0,-1.01718c0.50859,-0.50859 1.01718,0 1.01718,0c1.07319,1.10415 1.14975,1.84978 2.63079,2.48385l0.49401,0.06148c0,0 0.70947,0.11825 0.59122,0.82771z" fill="#cccccc" stroke="none" stroke-width="0.5" stroke-linecap="butt"/><path d="M269.09539,231.60428c0,0 -8.14588,-65.77251 12.67728,-66.26203c16.54171,-0.38887 16.08588,24.8005 8.37279,24.47347c-2.56996,-0.10897 -4.67041,-2.49995 -4.67041,-3.97397c0,-1.84868 0.6036,-9.19416 -4.02312,-9.19416c-5.20738,0 -2.92817,55.0456 -2.92817,55.0456z" data-paper-data="{&quot;index&quot;:null}" fill="#99440f" stroke="#000000" stroke-width="0" stroke-linecap="round"/></g></g></svg>