<svg version="1.1" xmlns="http://www.w3.org/2000/svg" xmlns:xlink="http://www.w3.org/1999/xlink" width="839.94478" height="662.52789" viewBox="0,0,839.94478,662.52789"><g transform="translate(34.6302,135.11293)"><g data-paper-data="{&quot;isPaintingLayer&quot;:true}" fill-rule="nonzero" stroke="none" stroke-linecap="butt" stroke-linejoin="miter" stroke-miterlimit="10" stroke-dasharray="" stroke-dashoffset="0" style="mix-blend-mode: normal"><path d="M-3.536,213.52769v-227.3213h190.80383v227.3213z" fill="#000000" stroke-width="0"/><path d="M789.02934,527.41496l-366.06988,-9.12381l16.28523,-653.40408l366.06989,9.12381zM597.18547,170.65728l-9.47534,4.41669c-5.2121,7.89802 -7.5888,11.17159 -11.81648,23.38965c-1.49537,4.32165 -1.37582,9.04218 -2.01773,13.56995c-0.98179,6.92513 -2.4333,13.80648 -2.85327,20.78823c-0.27947,4.64587 0.49388,9.29547 0.76413,13.94189c0.40524,6.96746 0.31114,13.9855 1.26234,20.8996c0.68363,4.96914 2.40582,9.73917 3.62222,14.60539c3.00065,12.00413 6.32722,23.93763 10.14927,35.70601c0,0 3.09221,9.50991 12.60211,6.41769c9.5099,-3.09222 6.41769,-12.60211 6.41769,-12.60211c-3.68939,-11.3325 -6.85522,-22.83699 -9.77133,-34.39266c-1.07437,-4.25738 -2.66035,-8.41415 -3.25094,-12.7651c-0.85466,-6.2964 -0.69461,-12.6893 -1.06525,-19.03262c-0.23326,-3.99208 -0.99664,-7.98237 -0.74644,-11.97342c0.39661,-6.32658 1.81652,-12.5473 2.67737,-18.82757c0.48001,-3.50182 0.1861,-7.17889 1.34512,-10.51802c2.67782,-7.71478 4.4584,-10.88912 7.22579,-15.02679c2.34347,-1.27393 4.56273,-3.70681 4.67848,-8.35075c0.24916,-9.9969 -9.74773,-10.24606 -9.74773,-10.24606zM545.61459,332.79608c0.1376,-5.52113 -4.2266,-10.10845 -9.74773,-10.24605c-5.52114,-0.13761 -10.10845,4.22661 -10.24606,9.74774c-0.13761,5.52113 4.2266,10.10845 9.74773,10.24606c5.52113,0.13761 10.10845,-4.22661 10.24606,-9.74774zM541.29597,249.58539c0.1376,-5.52114 -4.22661,-10.10845 -9.74774,-10.24605c-5.52114,-0.1376 -10.10844,4.2266 -10.24605,9.74773c-0.13761,5.52114 4.2266,10.10845 9.74773,10.24606c5.52114,0.1376 10.10845,-4.2266 10.24606,-9.74774z" fill="#f9a637" stroke-width="0"/><path d="M-34.6302,369.42163v-407.16988h497.4999v407.16988z" fill="#f9a637" stroke-width="0"/><text transform="translate(20.88961,48.5571) scale(0.70681,0.74464)" font-size="40" xml:space="preserve" fill="#ffffff" fill-rule="nonzero" stroke="none" stroke-width="1" stroke-linecap="butt" stroke-linejoin="miter" stroke-miterlimit="10" stroke-dasharray="" stroke-dashoffset="0" font-family="Sans Serif" font-weight="normal" text-anchor="start" style="mix-blend-mode: normal"><tspan x="0" dy="0">Meower Scratch is deprecated :(</tspan></text><text transform="translate(24.41026,86.77942) scale(0.5,0.5)" font-size="40" xml:space="preserve" fill="#ffffff" fill-rule="nonzero" stroke="none" stroke-width="1" stroke-linecap="butt" stroke-linejoin="miter" stroke-miterlimit="10" stroke-dasharray="" stroke-dashoffset="0" font-family="Sans Serif" font-weight="normal" text-anchor="start" style="mix-blend-mode: normal"><tspan x="0" dy="0">take a look at app.meower.org instead.</tspan><tspan x="0" dy="46.15px"> </tspan><tspan x="0" dy="46.15px">thanks to all these cool people for helping with</tspan><tspan x="0" dy="46.15px">Meower Scratch over the years:</tspan><tspan x="0" dy="46.15px"> </tspan><tspan x="0" dy="46.15px">Mike, Tnix, Jersey, Under, Melt, Bloc, Zed, MD,</tspan><tspan x="0" dy="46.15px">Pixelation, Hades, Arrow, Josh, Greg, Vox, and Sam</tspan></text></g></g></svg>